<svg width="146" height="32" viewBox="0 0 146 32" fill="none" xmlns="http://www.w3.org/2000/svg">
<rect width="32" height="32" rx="16" fill="#6F4CCE"/>
<path d="M15.9995 18.9998C16.7948 18.9989 17.5573 18.6826 18.1197 18.1203C18.6821 17.558 18.9985 16.7956 18.9995 16.0002V11.9998C18.9995 11.2041 18.6834 10.441 18.1208 9.87844C17.5582 9.31583 16.7952 8.99976 15.9995 8.99976C15.2039 8.99976 14.4408 9.31583 13.8782 9.87844C13.3156 10.441 12.9995 11.2041 12.9995 11.9998V15.9998C13.0004 16.7951 13.3167 17.5577 13.8792 18.1201C14.4416 18.6825 15.2041 18.9989 15.9995 18.9998Z" fill="#ECFE02"/>
<path d="M20.5272 16.0033C20.3956 15.99 20.2641 16.029 20.1609 16.1117C20.0577 16.1944 19.9911 16.3143 19.9754 16.4456C19.8656 17.4233 19.3995 18.3262 18.6661 18.9818C17.9327 19.6375 16.9834 19.9999 15.9996 19.9998C15.0158 19.9998 14.0666 19.6372 13.3332 18.9815C12.5999 18.3258 12.1339 17.4228 12.0242 16.4452C12.0081 16.3141 11.9414 16.1945 11.8383 16.1119C11.7352 16.0294 11.6039 15.9904 11.4725 16.0033C11.3406 16.0179 11.22 16.0843 11.137 16.1878C11.0541 16.2914 11.0156 16.4236 11.0301 16.5555C11.1574 17.6901 11.671 18.7465 12.4849 19.5472C13.2988 20.348 14.3633 20.8444 15.4998 20.9533V22.4998C15.4998 22.6325 15.5525 22.7596 15.6463 22.8534C15.74 22.9472 15.8672 22.9998 15.9998 22.9998C16.1324 22.9998 16.2596 22.9472 16.3534 22.8534C16.4471 22.7596 16.4998 22.6325 16.4998 22.4998V20.9533C17.6365 20.8447 18.7013 20.3483 19.5152 19.5474C20.3291 18.7464 20.8426 17.6899 20.9695 16.555C20.984 16.4232 20.9455 16.291 20.8626 16.1876C20.7796 16.0841 20.659 16.0178 20.5272 16.0033Z" fill="#ECFE02"/>
<path d="M41.517 25V7.54545H48.4034C49.7273 7.54545 50.8551 7.7983 51.7869 8.30398C52.7188 8.80398 53.429 9.5 53.9176 10.392C54.4119 11.2784 54.6591 12.3011 54.6591 13.4602C54.6591 14.6193 54.4091 15.642 53.9091 16.5284C53.4091 17.4148 52.6847 18.1051 51.7358 18.5994C50.7926 19.0937 49.6506 19.3409 48.3097 19.3409H43.9205V16.3835H47.7131C48.4233 16.3835 49.0085 16.2614 49.4688 16.017C49.9347 15.767 50.2813 15.4233 50.5085 14.9858C50.7415 14.5426 50.858 14.0341 50.858 13.4602C50.858 12.8807 50.7415 12.375 50.5085 11.9432C50.2813 11.5057 49.9347 11.1676 49.4688 10.929C49.0028 10.6847 48.4119 10.5625 47.696 10.5625H45.2074V25H41.517ZM73.0959 16.2727C73.0959 18.1761 72.7351 19.7955 72.0135 21.1307C71.2976 22.4659 70.3203 23.4858 69.0817 24.1903C67.8487 24.8892 66.4624 25.2386 64.9226 25.2386C63.3714 25.2386 61.9794 24.8864 60.7464 24.1818C59.5135 23.4773 58.5391 22.4574 57.8232 21.1222C57.1072 19.7869 56.7493 18.1705 56.7493 16.2727C56.7493 14.3693 57.1072 12.75 57.8232 11.4148C58.5391 10.0795 59.5135 9.0625 60.7464 8.36364C61.9794 7.65909 63.3714 7.30682 64.9226 7.30682C66.4624 7.30682 67.8487 7.65909 69.0817 8.36364C70.3203 9.0625 71.2976 10.0795 72.0135 11.4148C72.7351 12.75 73.0959 14.3693 73.0959 16.2727ZM69.3544 16.2727C69.3544 15.0398 69.1697 14 68.8004 13.1534C68.4368 12.3068 67.9226 11.6648 67.2578 11.2273C66.593 10.7898 65.8146 10.571 64.9226 10.571C64.0305 10.571 63.2521 10.7898 62.5874 11.2273C61.9226 11.6648 61.4055 12.3068 61.0362 13.1534C60.6726 14 60.4908 15.0398 60.4908 16.2727C60.4908 17.5057 60.6726 18.5455 61.0362 19.392C61.4055 20.2386 61.9226 20.8807 62.5874 21.3182C63.2521 21.7557 64.0305 21.9744 64.9226 21.9744C65.8146 21.9744 66.593 21.7557 67.2578 21.3182C67.9226 20.8807 68.4368 20.2386 68.8004 19.392C69.1697 18.5455 69.3544 17.5057 69.3544 16.2727ZM82.017 25H75.8295V7.54545H82.0682C83.8239 7.54545 85.3352 7.89489 86.6023 8.59375C87.8693 9.28693 88.8438 10.2841 89.5256 11.5852C90.2131 12.8864 90.5568 14.4432 90.5568 16.2557C90.5568 18.0739 90.2131 19.6364 89.5256 20.9432C88.8438 22.25 87.8636 23.2528 86.5852 23.9517C85.3125 24.6506 83.7898 25 82.017 25ZM79.5199 21.8381H81.8636C82.9545 21.8381 83.8722 21.6449 84.6165 21.2585C85.3665 20.8665 85.929 20.2614 86.304 19.4432C86.6847 18.6193 86.875 17.5568 86.875 16.2557C86.875 14.9659 86.6847 13.9119 86.304 13.0938C85.929 12.2756 85.3693 11.6733 84.625 11.2869C83.8807 10.9006 82.9631 10.7074 81.8722 10.7074H79.5199V21.8381ZM93.2905 25V7.54545H96.9808V15.2415H97.2109L103.492 7.54545H107.915L101.438 15.3608L107.992 25H103.577L98.7962 17.8239L96.9808 20.0398V25H93.2905ZM109.837 25V7.54545H121.599V10.5881H113.528V14.7472H120.994V17.7898H113.528V21.9574H121.633V25H109.837ZM134.001 12.5653C133.933 11.8778 133.641 11.3437 133.124 10.9631C132.607 10.5824 131.905 10.392 131.018 10.392C130.416 10.392 129.908 10.4773 129.493 10.6477C129.078 10.8125 128.76 11.0426 128.538 11.3381C128.322 11.6335 128.214 11.9688 128.214 12.3438C128.203 12.6562 128.268 12.929 128.411 13.1619C128.558 13.3949 128.76 13.5966 129.016 13.767C129.271 13.9318 129.567 14.0767 129.902 14.2017C130.237 14.321 130.595 14.4233 130.976 14.5085L132.544 14.8835C133.305 15.054 134.004 15.2812 134.641 15.5653C135.277 15.8494 135.828 16.1989 136.294 16.6136C136.76 17.0284 137.121 17.517 137.376 18.0795C137.638 18.642 137.771 19.2869 137.777 20.0142C137.771 21.0824 137.499 22.0085 136.959 22.7926C136.425 23.571 135.652 24.1761 134.641 24.608C133.635 25.0341 132.422 25.2472 131.001 25.2472C129.592 25.2472 128.365 25.0312 127.32 24.5994C126.28 24.1676 125.467 23.5284 124.882 22.6818C124.303 21.8295 123.999 20.7756 123.97 19.5199H127.541C127.581 20.1051 127.749 20.5937 128.044 20.9858C128.345 21.3722 128.746 21.6648 129.246 21.8636C129.751 22.0568 130.322 22.1534 130.959 22.1534C131.584 22.1534 132.126 22.0625 132.587 21.8807C133.053 21.6989 133.413 21.446 133.669 21.1222C133.925 20.7983 134.053 20.4261 134.053 20.0057C134.053 19.6136 133.936 19.2841 133.703 19.017C133.476 18.75 133.141 18.5227 132.697 18.3352C132.26 18.1477 131.723 17.9773 131.087 17.8239L129.186 17.3466C127.714 16.9886 126.553 16.429 125.7 15.6676C124.848 14.9062 124.425 13.8807 124.43 12.5909C124.425 11.5341 124.706 10.6108 125.274 9.82102C125.848 9.03125 126.635 8.41477 127.635 7.97159C128.635 7.52841 129.771 7.30682 131.044 7.30682C132.339 7.30682 133.47 7.52841 134.436 7.97159C135.408 8.41477 136.163 9.03125 136.703 9.82102C137.243 10.6108 137.521 11.5256 137.538 12.5653H134.001ZM142.313 25.2216C141.751 25.2216 141.268 25.0227 140.864 24.625C140.467 24.2216 140.268 23.7386 140.268 23.1761C140.268 22.6193 140.467 22.142 140.864 21.7443C141.268 21.3466 141.751 21.1477 142.313 21.1477C142.859 21.1477 143.336 21.3466 143.745 21.7443C144.154 22.142 144.359 22.6193 144.359 23.1761C144.359 23.5511 144.262 23.8949 144.069 24.2074C143.881 24.5142 143.634 24.7614 143.327 24.9489C143.021 25.1307 142.683 25.2216 142.313 25.2216Z" fill="white"/>
</svg>
