<svg width="198" height="40" viewBox="0 0 198 40" fill="none" xmlns="http://www.w3.org/2000/svg">
<rect width="40" height="40" rx="20" fill="#6F4CCE"/>
<path d="M19.9995 24.4996C21.1925 24.4984 22.3362 24.024 23.1798 23.1805C24.0235 22.337 24.4981 21.1933 24.4995 20.0004V13.9996C24.4995 12.8062 24.0254 11.6616 23.1815 10.8177C22.3376 9.97374 21.193 9.49963 19.9995 9.49963C18.806 9.49963 17.6614 9.97374 16.8175 10.8177C15.9736 11.6616 15.4995 12.8062 15.4995 13.9996V19.9996C15.5008 21.1927 15.9753 22.3365 16.819 23.1802C17.6626 24.0238 18.8064 24.4983 19.9995 24.4996Z" fill="#ECFE02"/>
<path d="M26.7906 20.0048C26.5932 19.985 26.396 20.0434 26.2412 20.1674C26.0865 20.2915 25.9866 20.4714 25.963 20.6683C25.7983 22.1348 25.0992 23.4891 23.999 24.4726C22.8989 25.4561 21.4749 25.9997 19.9993 25.9996C18.5236 25.9996 17.0998 25.4557 15.9997 24.4721C14.8997 23.4885 14.2007 22.1341 14.0362 20.6676C14.012 20.471 13.9119 20.2916 13.7573 20.1678C13.6027 20.0439 13.4058 19.9854 13.2086 20.0048C13.0108 20.0267 12.8298 20.1263 12.7054 20.2816C12.581 20.437 12.5233 20.6353 12.545 20.8331C12.7359 22.5351 13.5064 24.1196 14.7272 25.3207C15.948 26.5218 17.5448 27.2665 19.2496 27.4298V29.7496C19.2496 29.9486 19.3286 30.1393 19.4693 30.28C19.6099 30.4206 19.8007 30.4996 19.9996 30.4996C20.1985 30.4996 20.3893 30.4206 20.5299 30.28C20.6706 30.1393 20.7496 29.9486 20.7496 29.7496V27.4299C22.4547 27.267 24.0518 26.5223 25.2727 25.3209C26.4936 24.1196 27.2638 22.5347 27.4542 20.8324C27.4759 20.6347 27.4182 20.4364 27.2938 20.2812C27.1693 20.126 26.9883 20.0266 26.7906 20.0048Z" fill="#ECFE02"/>
<path d="M58.0227 32V8.72727H67.2045C68.9697 8.72727 70.4735 9.06439 71.7159 9.73864C72.9583 10.4053 73.9053 11.3333 74.5568 12.5227C75.2159 13.7045 75.5455 15.0682 75.5455 16.6136C75.5455 18.1591 75.2121 19.5227 74.5455 20.7045C73.8788 21.8864 72.9129 22.8068 71.6477 23.4659C70.3902 24.125 68.8674 24.4545 67.0795 24.4545H61.2273V20.5114H66.2841C67.2311 20.5114 68.0114 20.3485 68.625 20.0227C69.2462 19.6894 69.7083 19.2311 70.0114 18.6477C70.322 18.0568 70.4773 17.3788 70.4773 16.6136C70.4773 15.8409 70.322 15.1667 70.0114 14.5909C69.7083 14.0076 69.2462 13.5568 68.625 13.2386C68.0038 12.9129 67.2159 12.75 66.2614 12.75H62.9432V32H58.0227ZM100.128 20.3636C100.128 22.9015 99.6468 25.0606 98.6847 26.8409C97.7301 28.6212 96.4271 29.9811 94.7756 30.9205C93.1316 31.8523 91.2831 32.3182 89.2301 32.3182C87.1619 32.3182 85.3059 31.8485 83.6619 30.9091C82.018 29.9697 80.7188 28.6098 79.7642 26.8295C78.8097 25.0492 78.3324 22.8939 78.3324 20.3636C78.3324 17.8258 78.8097 15.6667 79.7642 13.8864C80.7188 12.1061 82.018 10.75 83.6619 9.81818C85.3059 8.87879 87.1619 8.40909 89.2301 8.40909C91.2831 8.40909 93.1316 8.87879 94.7756 9.81818C96.4271 10.75 97.7301 12.1061 98.6847 13.8864C99.6468 15.6667 100.128 17.8258 100.128 20.3636ZM95.1392 20.3636C95.1392 18.7197 94.893 17.3333 94.4006 16.2045C93.9157 15.0758 93.2301 14.2197 92.3438 13.6364C91.4574 13.053 90.4195 12.7614 89.2301 12.7614C88.0407 12.7614 87.0028 13.053 86.1165 13.6364C85.2301 14.2197 84.5407 15.0758 84.0483 16.2045C83.5634 17.3333 83.321 18.7197 83.321 20.3636C83.321 22.0076 83.5634 23.3939 84.0483 24.5227C84.5407 25.6515 85.2301 26.5076 86.1165 27.0909C87.0028 27.6742 88.0407 27.9659 89.2301 27.9659C90.4195 27.9659 91.4574 27.6742 92.3438 27.0909C93.2301 26.5076 93.9157 25.6515 94.4006 24.5227C94.893 23.3939 95.1392 22.0076 95.1392 20.3636ZM112.023 32H103.773V8.72727H112.091C114.432 8.72727 116.447 9.19318 118.136 10.125C119.826 11.0492 121.125 12.3788 122.034 14.1136C122.951 15.8485 123.409 17.9242 123.409 20.3409C123.409 22.7652 122.951 24.8485 122.034 26.5909C121.125 28.3333 119.818 29.6705 118.114 30.6023C116.417 31.5341 114.386 32 112.023 32ZM108.693 27.7841H111.818C113.273 27.7841 114.496 27.5265 115.489 27.0114C116.489 26.4886 117.239 25.6818 117.739 24.5909C118.246 23.4924 118.5 22.0758 118.5 20.3409C118.5 18.6212 118.246 17.2159 117.739 16.125C117.239 15.0341 116.492 14.2311 115.5 13.7159C114.508 13.2008 113.284 12.9432 111.83 12.9432H108.693V27.7841ZM127.054 32V8.72727H131.974V18.9886H132.281L140.656 8.72727H146.554L137.918 19.1477L146.656 32H140.77L134.395 22.4318L131.974 25.3864V32H127.054ZM149.116 32V8.72727H164.798V12.7841H154.037V18.3295H163.991V22.3864H154.037V27.9432H164.844V32H149.116ZM181.335 15.4205C181.244 14.5038 180.854 13.7917 180.165 13.2841C179.475 12.7765 178.54 12.5227 177.358 12.5227C176.555 12.5227 175.877 12.6364 175.324 12.8636C174.771 13.0833 174.347 13.3902 174.051 13.7841C173.763 14.178 173.619 14.625 173.619 15.125C173.604 15.5417 173.691 15.9053 173.881 16.2159C174.078 16.5265 174.347 16.7955 174.688 17.0227C175.028 17.2424 175.422 17.4356 175.869 17.6023C176.316 17.7614 176.794 17.8977 177.301 18.0114L179.392 18.5114C180.407 18.7386 181.339 19.0417 182.188 19.4205C183.036 19.7992 183.771 20.2652 184.392 20.8182C185.013 21.3712 185.494 22.0227 185.835 22.7727C186.184 23.5227 186.362 24.3826 186.369 25.3523C186.362 26.7765 185.998 28.0114 185.278 29.0568C184.566 30.0947 183.536 30.9015 182.188 31.4773C180.847 32.0455 179.229 32.3295 177.335 32.3295C175.456 32.3295 173.82 32.0417 172.426 31.4659C171.04 30.8902 169.956 30.0379 169.176 28.9091C168.403 27.7727 167.998 26.3674 167.96 24.6932H172.722C172.775 25.4735 172.998 26.125 173.392 26.6477C173.794 27.1629 174.328 27.553 174.994 27.8182C175.669 28.0758 176.43 28.2045 177.278 28.2045C178.112 28.2045 178.835 28.0833 179.449 27.8409C180.07 27.5985 180.551 27.2614 180.892 26.8295C181.233 26.3977 181.403 25.9015 181.403 25.3409C181.403 24.8182 181.248 24.3788 180.938 24.0227C180.634 23.6667 180.188 23.3636 179.597 23.1136C179.013 22.8636 178.297 22.6364 177.449 22.4318L174.915 21.7955C172.953 21.3182 171.403 20.572 170.267 19.5568C169.131 18.5417 168.566 17.1742 168.574 15.4545C168.566 14.0455 168.941 12.8144 169.699 11.7614C170.464 10.7083 171.513 9.88636 172.847 9.29545C174.18 8.70454 175.695 8.40909 177.392 8.40909C179.119 8.40909 180.627 8.70454 181.915 9.29545C183.21 9.88636 184.218 10.7083 184.938 11.7614C185.657 12.8144 186.028 14.0341 186.051 15.4205H181.335ZM192.418 32.2955C191.668 32.2955 191.024 32.0303 190.486 31.5C189.955 30.9621 189.69 30.3182 189.69 29.5682C189.69 28.8258 189.955 28.1894 190.486 27.6591C191.024 27.1288 191.668 26.8636 192.418 26.8636C193.145 26.8636 193.781 27.1288 194.327 27.6591C194.872 28.1894 195.145 28.8258 195.145 29.5682C195.145 30.0682 195.016 30.5265 194.759 30.9432C194.509 31.3523 194.179 31.6818 193.77 31.9318C193.361 32.1742 192.91 32.2955 192.418 32.2955Z" fill="black"/>
</svg>
