<svg width="48" height="48" viewBox="0 0 48 48" fill="none" xmlns="http://www.w3.org/2000/svg">
<circle cx="24" cy="24" r="24" fill="#6F4CCE"/>
<path d="M33.7793 22.7197L20.2822 14.4712C20.0549 14.3322 19.7946 14.2562 19.5282 14.2512C19.2617 14.2461 18.9988 14.3122 18.7663 14.4425C18.5339 14.5728 18.3404 14.7627 18.2057 14.9926C18.071 15.2226 18 15.4842 18 15.7507V32.2493C18.0002 32.5157 18.0714 32.7772 18.2061 33.007C18.3408 33.2368 18.5343 33.4266 18.7667 33.5569C18.9991 33.6871 19.2619 33.7532 19.5283 33.7483C19.7946 33.7433 20.0548 33.6676 20.2822 33.5288L33.7793 25.2803C33.9986 25.1462 34.1797 24.958 34.3054 24.7339C34.4311 24.5097 34.4971 24.257 34.4971 24C34.4971 23.743 34.4311 23.4903 34.3054 23.2661C34.1797 23.0419 33.9986 22.8538 33.7793 22.7197V22.7197Z" fill="white"/>
</svg>
